<svg id="artwork" xmlns="http://www.w3.org/2000/svg" xmlns:xlink="http://www.w3.org/1999/xlink" width="135" height="40" viewBox="0 0 135 40"><defs><style>.cls-1{fill:#a6a6a6;}.cls-10,.cls-2,.cls-9{fill:#fff;}.cls-3{fill:url(#linear-gradient);}.cls-4{fill:url(#linear-gradient-2);}.cls-5{fill:url(#linear-gradient-3);}.cls-6{fill:url(#linear-gradient-4);}.cls-7{opacity:0.2;}.cls-7,.cls-8,.cls-9{isolation:isolate;}.cls-8{opacity:0.12;}.cls-9{opacity:0.25;}.cls-10{stroke:#fff;stroke-miterlimit:10;stroke-width:0.2px;}</style><linearGradient id="linear-gradient" x1="21.8" y1="173.29" x2="5.017" y2="156.508" gradientTransform="matrix(1, 0, 0, -1, 0, 182)" gradientUnits="userSpaceOnUse"><stop offset="0" stop-color="#00a0ff"/><stop offset="0.007" stop-color="#00a1ff"/><stop offset="0.26" stop-color="#00beff"/><stop offset="0.512" stop-color="#00d2ff"/><stop offset="0.76" stop-color="#00dfff"/><stop offset="1" stop-color="#00e3ff"/></linearGradient><linearGradient id="linear-gradient-2" x1="33.834" y1="161.999" x2="9.637" y2="161.999" gradientTransform="matrix(1, 0, 0, -1, 0, 182)" gradientUnits="userSpaceOnUse"><stop offset="0" stop-color="#ffe000"/><stop offset="0.409" stop-color="#ffbd00"/><stop offset="0.775" stop-color="orange"/><stop offset="1" stop-color="#ff9c00"/></linearGradient><linearGradient id="linear-gradient-3" x1="24.827" y1="159.704" x2="2.069" y2="136.946" gradientTransform="matrix(1, 0, 0, -1, 0, 182)" gradientUnits="userSpaceOnUse"><stop offset="0" stop-color="#ff3a44"/><stop offset="1" stop-color="#c31162"/></linearGradient><linearGradient id="linear-gradient-4" x1="7.297" y1="181.824" x2="17.46" y2="171.661" gradientTransform="matrix(1, 0, 0, -1, 0, 182)" gradientUnits="userSpaceOnUse"><stop offset="0" stop-color="#32a071"/><stop offset="0.069" stop-color="#2da771"/><stop offset="0.476" stop-color="#15cf74"/><stop offset="0.801" stop-color="#06e775"/><stop offset="1" stop-color="#00f076"/></linearGradient></defs><rect width="135" height="40" rx="5"/><path class="cls-1" d="M130,.8A4.2,4.2,0,0,1,134.2,5V35a4.2,4.2,0,0,1-4.2,4.2H5A4.2,4.2,0,0,1,.8,35V5A4.2,4.2,0,0,1,5,.8H130m0-.8H5A5.015,5.015,0,0,0,0,5V35a5.015,5.015,0,0,0,5,5H130a5.015,5.015,0,0,0,5-5V5a5.015,5.015,0,0,0-5-5Z"/><path class="cls-2" d="M68.136,21.752a4.253,4.253,0,1,0,4.269,4.253A4.192,4.192,0,0,0,68.136,21.752Zm0,6.831a2.585,2.585,0,1,1,2.4-2.578A2.461,2.461,0,0,1,68.136,28.583Zm-9.314-6.831a4.253,4.253,0,1,0,4.27,4.253A4.192,4.192,0,0,0,58.822,21.752Zm0,6.831a2.585,2.585,0,1,1,2.4-2.578A2.461,2.461,0,0,1,58.822,28.583ZM47.744,23.057v1.8h4.317a3.766,3.766,0,0,1-.983,2.272,4.42,4.42,0,0,1-3.334,1.321,4.8,4.8,0,0,1,0-9.6A4.6,4.6,0,0,1,51,20.141l1.273-1.273a6.3,6.3,0,0,0-4.527-1.821,6.606,6.606,0,1,0,0,13.211,6.036,6.036,0,0,0,4.607-1.853,5.962,5.962,0,0,0,1.563-4.221,5.836,5.836,0,0,0-.1-1.127Zm45.308,1.4a3.954,3.954,0,0,0-3.641-2.706A4.042,4.042,0,0,0,85.4,26.005a4.162,4.162,0,0,0,4.22,4.253,4.232,4.232,0,0,0,3.545-1.885l-1.45-.966a2.432,2.432,0,0,1-2.095,1.176,2.164,2.164,0,0,1-2.062-1.289l5.687-2.352Zm-5.8,1.418A2.333,2.333,0,0,1,89.475,23.4a1.648,1.648,0,0,1,1.579.9ZM82.628,30H84.5V17.5H82.628Zm-3.061-7.3H79.5a2.948,2.948,0,0,0-2.239-.95,4.257,4.257,0,0,0,0,8.506,2.9,2.9,0,0,0,2.239-.967h.064V29.9c0,1.627-.87,2.5-2.271,2.5a2.354,2.354,0,0,1-2.143-1.515l-1.627.677a4.053,4.053,0,0,0,3.77,2.513c2.191,0,4.044-1.289,4.044-4.43V22.009H79.567Zm-2.142,5.881a2.587,2.587,0,0,1,0-5.156A2.4,2.4,0,0,1,79.7,26.021,2.377,2.377,0,0,1,77.425,28.583ZM101.806,17.5H97.335V30H99.2V25.264h2.606a3.888,3.888,0,1,0,0-7.765Zm.048,6.025H99.2V19.239h2.654a2.143,2.143,0,1,1,0,4.285Zm11.532-1.8a3.5,3.5,0,0,0-3.33,1.914l1.657.691a1.769,1.769,0,0,1,1.705-.917,1.8,1.8,0,0,1,1.962,1.609v.128a4.131,4.131,0,0,0-1.946-.482c-1.785,0-3.6.981-3.6,2.814a2.889,2.889,0,0,0,3.1,2.751,2.633,2.633,0,0,0,2.381-1.223h.064v.965h1.8V25.187C117.181,22.967,115.525,21.729,113.386,21.729Zm-.226,6.851c-.611,0-1.463-.3-1.463-1.061,0-.965,1.061-1.335,1.978-1.335a3.329,3.329,0,0,1,1.7.418A2.262,2.262,0,0,1,113.16,28.58ZM123.743,22l-2.139,5.42h-.064L119.32,22h-2.01l3.329,7.575-1.9,4.214h1.946L125.818,22Zm-16.807,8H108.8V17.5h-1.866Z"/><path class="cls-3" d="M10.435,7.538a2,2,0,0,0-.463,1.4V31.059a2,2,0,0,0,.463,1.4l.074.072L22.9,20.147v-.292L10.509,7.466Z"/><path class="cls-4" d="M27.028,24.279,22.9,20.147v-.292l4.131-4.13.093.053,4.893,2.78c1.4.794,1.4,2.093,0,2.887l-4.893,2.781Z"/><path class="cls-5" d="M27.122,24.225,22.9,20,10.435,32.464a1.626,1.626,0,0,0,2.078.061l14.609-8.3"/><path class="cls-6" d="M27.122,15.777l-14.609-8.3a1.626,1.626,0,0,0-2.078.061L22.9,20Z"/><path class="cls-7" d="M27.029,24.132,12.513,32.379a1.663,1.663,0,0,1-2,.011h0l-.075.075h0l.074.072h0a1.663,1.663,0,0,0,2-.011l14.609-8.3Z"/><path class="cls-8" d="M10.435,32.318a2,2,0,0,1-.463-1.4v.146a2,2,0,0,0,.463,1.405l.075-.075Z"/><path class="cls-8" d="M32.015,21.3l-4.986,2.833.093.093,4.893-2.78A1.755,1.755,0,0,0,33.063,20h0A1.864,1.864,0,0,1,32.015,21.3Z"/><path class="cls-9" d="M12.513,7.623l19.5,11.08A1.863,1.863,0,0,1,33.063,20h0a1.755,1.755,0,0,0-1.048-1.444l-19.5-11.08c-1.4-.794-2.541-.134-2.541,1.467V9.09C9.972,7.489,11.116,6.829,12.513,7.623Z"/><path class="cls-10" d="M43.337,13.134a2.236,2.236,0,0,1-1.277-.427,1.97,1.97,0,0,1-.817-1.2l.7-.284a1.611,1.611,0,0,0,.514.833,1.3,1.3,0,0,0,.876.34,1.407,1.407,0,0,0,.86-.264.846.846,0,0,0,.355-.717.919.919,0,0,0-.355-.775,3.724,3.724,0,0,0-1.127-.507,3.006,3.006,0,0,1-1.207-.649,1.358,1.358,0,0,1-.411-1.019,1.486,1.486,0,0,1,.511-1.122A1.875,1.875,0,0,1,43.3,6.866a1.926,1.926,0,0,1,1.24.381,1.766,1.766,0,0,1,.621.834l-.7.293a1.035,1.035,0,0,0-.373-.528,1.311,1.311,0,0,0-1.525,0,.753.753,0,0,0-.314.615.7.7,0,0,0,.289.566,2.762,2.762,0,0,0,.85.415,7.216,7.216,0,0,1,.743.277,3.384,3.384,0,0,1,.6.356,1.421,1.421,0,0,1,.461.553,1.8,1.8,0,0,1,.155.767,1.642,1.642,0,0,1-.18.779,1.466,1.466,0,0,1-.478.545,2.332,2.332,0,0,1-.641.3A2.4,2.4,0,0,1,43.337,13.134Z"/><path class="cls-10" d="M46.112,13v-.8L49.3,7.737H46.245V7H50.2v.8l-3.193,4.458h3.227V13Z"/><path class="cls-10" d="M54.843,7.737H52.111v1.9h2.464v.72H52.111v1.9h2.732V13h-3.5V7h3.5Z"/><path class="cls-10" d="M56.05,13V7H58.1a1.894,1.894,0,0,1,1.319.507A1.726,1.726,0,0,1,59.561,9.9a1.781,1.781,0,0,1-1.023.607l-.016.025,1.684,2.439V13h-.913l-1.617-2.43h-.855V13Zm.771-3.151h1.24a1.135,1.135,0,0,0,.792-.3.987.987,0,0,0,.331-.763,1.056,1.056,0,0,0-.293-.72.992.992,0,0,0-.779-.328H56.821Z"/><path class="cls-10" d="M64.564,7.737H61.831v1.9H64.3v.72H61.831v1.9h2.733V13h-3.5V7h3.5Z"/><path class="cls-10" d="M65.436,13v-.8l3.192-4.458H65.57V7h3.954v.8l-3.192,4.458h3.227V13Z"/><path class="cls-10" d="M70.665,13V7H72.5a2.984,2.984,0,0,1,2.213.834A2.937,2.937,0,0,1,75.542,10a2.939,2.939,0,0,1-.829,2.166A2.984,2.984,0,0,1,72.5,13Zm.77-.737H72.5a2.25,2.25,0,0,0,1.646-.6A2.226,2.226,0,0,0,74.754,10a2.226,2.226,0,0,0-.608-1.663,2.245,2.245,0,0,0-1.646-.6H71.435Z"/><path class="cls-10" d="M78.634,13V7h.77l2.087,3.653h.033L83.611,7h.771v6h-.771V9.439l.033-1.006h-.033l-1.877,3.294h-.453L79.4,8.433h-.033L79.4,9.439V13Z"/><path class="cls-10" d="M89.26,7.737H86.527v1.9h2.464v.72H86.527v1.9H89.26V13h-3.5V7h3.5Z"/><path class="cls-10" d="M96.071,10.243a2.707,2.707,0,0,1-.745,2,2.908,2.908,0,0,1-2.2.888A3.089,3.089,0,0,1,90.005,10a3.091,3.091,0,0,1,3.117-3.134,3.1,3.1,0,0,1,1.231.251,2.472,2.472,0,0,1,.939.671l-.528.528A2.024,2.024,0,0,0,93.122,7.6a2.319,2.319,0,0,0-2.33,2.4A2.359,2.359,0,0,0,94.8,11.727a1.89,1.89,0,0,0,.5-1.216H93.122v-.72h2.907A2.561,2.561,0,0,1,96.071,10.243Z"/><path class="cls-10" d="M97.948,9.816a.566.566,0,1,1,.168-.4A.545.545,0,0,1,97.948,9.816Zm0,3.067a.566.566,0,1,1,.168-.4A.548.548,0,0,1,97.948,12.883Z"/></svg>