<svg height="150" viewBox="0 0 500 150" width="500" xmlns="http://www.w3.org/2000/svg"><path d="m464.725 0h-429.425c-1.358 0-2.7 0-4.053.007-1.133.007-2.257.029-3.4.047a48.988 48.988 0 0 0 -7.418.655 24.65 24.65 0 0 0 -7.037 2.32 23.824 23.824 0 0 0 -5.998 4.364 23.154 23.154 0 0 0 -4.361 6 24.449 24.449 0 0 0 -2.314 7.046 48.122 48.122 0 0 0 -.663 7.411c-.034 1.135-.038 2.273-.056 3.408v87.494c.018 1.15.022 2.263.056 3.413a48.1 48.1 0 0 0 .663 7.41 24.4 24.4 0 0 0 2.314 7.05 22.963 22.963 0 0 0 4.361 5.975 23.221 23.221 0 0 0 5.992 4.363 24.809 24.809 0 0 0 7.037 2.336 49.772 49.772 0 0 0 7.418.654c1.144.025 2.268.04 3.4.04 1.359.007 2.696.007 4.059.007h429.43c1.331 0 2.683 0 4.013-.007 1.128 0 2.285-.015 3.413-.04a49.121 49.121 0 0 0 7.4-.654 25.19 25.19 0 0 0 7.064-2.336 23.225 23.225 0 0 0 5.98-4.363 23.646 23.646 0 0 0 4.374-5.975 24.45 24.45 0 0 0 2.292-7.05 50.07 50.07 0 0 0 .687-7.41c.014-1.15.014-2.263.014-3.413.029-1.344.029-2.682.029-4.048v-79.404c0-1.356 0-2.7-.029-4.042 0-1.135 0-2.273-.014-3.408a50.1 50.1 0 0 0 -.687-7.411 24.5 24.5 0 0 0 -2.292-7.046 23.949 23.949 0 0 0 -10.36-10.364 25.026 25.026 0 0 0 -7.064-2.32 48.355 48.355 0 0 0 -7.4-.655c-1.128-.018-2.285-.04-3.413-.047-1.329-.007-2.681-.007-4.012-.007z" fill="#b6b6b6"/><path d="m31.26 146.761c-1.128 0-2.228-.014-3.347-.04a46.957 46.957 0 0 1 -6.919-.6 21.761 21.761 0 0 1 -6.133-2.029 19.982 19.982 0 0 1 -5.171-3.763 19.676 19.676 0 0 1 -3.778-5.169 21.205 21.205 0 0 1 -2.01-6.135 45.936 45.936 0 0 1 -.616-6.94c-.023-.781-.054-3.38-.054-3.38v-87.447s.032-2.559.054-3.311a45.732 45.732 0 0 1 .613-6.93 21.328 21.328 0 0 1 2.011-6.152 19.886 19.886 0 0 1 3.758-5.175 20.6 20.6 0 0 1 5.191-3.785 21.581 21.581 0 0 1 6.12-2.014 46.685 46.685 0 0 1 6.943-.607l3.34-.045h437.458l3.38.047a45.813 45.813 0 0 1 6.879.6 21.972 21.972 0 0 1 6.185 2.028 20.691 20.691 0 0 1 8.94 8.958 21.334 21.334 0 0 1 1.981 6.1 48.026 48.026 0 0 1 .643 6.985c.011 1.049.011 2.175.011 3.295.029 1.389.029 2.71.029 4.042v79.4c0 1.344 0 2.657-.029 3.98 0 1.2 0 2.306-.014 3.441a47.153 47.153 0 0 1 -.633 6.861 21.243 21.243 0 0 1 -2 6.182 20.253 20.253 0 0 1 -3.759 5.129 20.025 20.025 0 0 1 -5.18 3.785 21.712 21.712 0 0 1 -6.175 2.036 46.422 46.422 0 0 1 -6.919.6c-1.084.026-2.22.04-3.322.04l-4.013.007z"/><g fill="#fff"><path d="m155.5 28.437h11.615v2.336h-8.831v7.167h8.159v2.3h-8.159v9.76h-2.784z"/><path d="m182.251 39.893h-8.383v7.775h9.343v2.332h-12.127v-21.563h11.647v2.336h-8.863v6.816h8.383z"/><path d="m186.828 28.726a39.867 39.867 0 0 1 5.92-.449c4 0 6.847.928 8.735 2.688a9.935 9.935 0 0 1 3.039 7.744 11.4 11.4 0 0 1 -3.1 8.383c-2.016 2.016-5.344 3.1-9.536 3.1a44.655 44.655 0 0 1 -5.055-.257zm2.784 19.07a17.559 17.559 0 0 0 2.815.16c5.952 0 9.184-3.328 9.184-9.151.032-5.088-2.848-8.32-8.736-8.32a15.815 15.815 0 0 0 -3.263.288z"/><path d="m219.307 39.893h-8.384v7.775h9.344v2.332h-12.128v-21.563h11.648v2.336h-8.864v6.816h8.384z"/><path d="m222.411 48.372 11.967-17.5v-.1h-10.943v-2.335h14.559v1.7l-11.9 17.438v.1h12.063v2.325h-15.746z"/><path d="m241.579 28.726a39.867 39.867 0 0 1 5.92-.449c4 0 6.847.928 8.734 2.688a9.936 9.936 0 0 1 3.04 7.744 11.4 11.4 0 0 1 -3.1 8.383c-2.016 2.016-5.344 3.1-9.536 3.1a44.655 44.655 0 0 1 -5.055-.257zm2.784 19.07a17.559 17.559 0 0 0 2.815.16c5.952 0 9.183-3.328 9.183-9.151.033-5.088-2.847-8.32-8.735-8.32a15.815 15.815 0 0 0 -3.263.288z"/><path d="m269.674 28.437h11.615v2.336h-8.831v7.167h8.159v2.3h-8.159v9.76h-2.784z"/><path d="m296.425 39.893h-8.383v7.775h9.343v2.332h-12.127v-21.563h11.642v2.336h-8.863v6.816h8.383z"/><path d="m301 28.437h2.784v19.231h9.216v2.332h-12z"/><path d="m326.377 43.221-2.24 6.779h-2.88l7.327-21.567h3.36l7.356 21.567h-2.976l-2.3-6.783zm7.071-2.176-2.112-6.208c-.48-1.408-.8-2.688-1.119-3.936h-.065c-.32 1.281-.672 2.592-1.088 3.9l-2.112 6.24z"/><path d="m341 48.372 11.967-17.5v-.1h-10.943v-2.335h14.56v1.7l-11.9 17.438v.1h12.063v2.325h-15.747z"/><path d="m164.949 98.827-3.36 10.173h-4.32l10.992-32.355h5.039l11.043 32.355h-4.465l-3.456-10.177zm10.609-3.265-3.168-9.312c-.72-2.112-1.2-4.032-1.681-5.9h-.095c-.48 1.92-1.009 3.887-1.633 5.856l-3.168 9.36z"/><path d="m187.557 93.354c0-2.976-.1-5.375-.192-7.584h3.792l.193 3.984h.095a9.135 9.135 0 0 1 8.257-4.512c5.616 0 9.841 4.752 9.841 11.809 0 8.352-5.088 12.481-10.561 12.481a8.149 8.149 0 0 1 -7.152-3.648h-.1v12.625h-4.176zm4.176 6.193a9.6 9.6 0 0 0 .192 1.728 6.52 6.52 0 0 0 6.337 4.945c4.465 0 7.056-3.649 7.056-8.977 0-4.656-2.448-8.64-6.912-8.64a6.74 6.74 0 0 0 -6.385 5.232 6.835 6.835 0 0 0 -.288 1.727z"/><path d="m212.756 93.354c0-2.976-.1-5.375-.192-7.584h3.792l.193 3.984h.1a9.133 9.133 0 0 1 8.256-4.512c5.617 0 9.841 4.752 9.841 11.809 0 8.352-5.088 12.481-10.561 12.481a8.149 8.149 0 0 1 -7.152-3.648h-.1v12.625h-4.177zm4.177 6.193a9.512 9.512 0 0 0 .192 1.728 6.519 6.519 0 0 0 6.336 4.945c4.465 0 7.057-3.649 7.057-8.977 0-4.656-2.449-8.64-6.913-8.64a6.739 6.739 0 0 0 -6.384 5.232 6.835 6.835 0 0 0 -.288 1.727z"/><path d="m263.59 107.563a30.142 30.142 0 0 1 -9.937 1.777c-4.9 0-8.929-1.248-12.1-4.273-2.785-2.688-4.513-7.008-4.513-12.048.049-9.649 6.673-16.706 17.522-16.706a20.007 20.007 0 0 1 8.068 1.487l-1.008 3.409a16.757 16.757 0 0 0 -7.153-1.393c-7.873 0-13.009 4.9-13.009 13.009 0 8.209 4.944 13.058 12.481 13.058a13.621 13.621 0 0 0 5.569-.864v-9.648h-6.577v-3.36h10.657z"/><path d="m281.828 109-.336-2.929h-.143a8.657 8.657 0 0 1 -7.1 3.457c-4.705 0-7.105-3.312-7.105-6.673 0-5.616 4.993-8.688 13.969-8.64v-.481c0-1.92-.528-5.376-5.28-5.376a11.579 11.579 0 0 0 -6.049 1.728l-.96-2.784a14.419 14.419 0 0 1 7.633-2.064c7.105 0 8.833 4.848 8.833 9.5v8.689a32.718 32.718 0 0 0 .384 5.568zm-.628-11.854c-4.608-.095-9.841.721-9.841 5.233a3.739 3.739 0 0 0 3.985 4.033 5.781 5.781 0 0 0 5.616-3.889 4.408 4.408 0 0 0 .24-1.343z"/><path d="m289.555 74.921h4.224v34.079h-4.224z"/><path d="m300.882 74.921h4.224v34.079h-4.224z"/><path d="m313.314 98.155c.1 5.712 3.745 8.065 7.969 8.065a15.292 15.292 0 0 0 6.433-1.2l.72 3.024a18.826 18.826 0 0 1 -7.729 1.44c-7.152 0-11.425-4.7-11.425-11.713s4.128-12.529 10.9-12.529c7.585 0 9.6 6.672 9.6 10.945a15.932 15.932 0 0 1 -.144 1.968zm12.386-3.024c.049-2.689-1.1-6.864-5.856-6.864-4.273 0-6.145 3.935-6.481 6.864z"/><path d="m333.762 93.019c0-2.737-.048-5.089-.192-7.249h3.7l.143 4.56h.193a6.969 6.969 0 0 1 6.432-5.088 4.569 4.569 0 0 1 1.2.144v3.984a6.35 6.35 0 0 0 -1.44-.143c-2.977 0-5.089 2.255-5.664 5.423a11.789 11.789 0 0 0 -.193 1.969v12.381h-4.176z"/><path d="m353.873 85.77 5.089 13.73c.528 1.536 1.1 3.36 1.488 4.753h.1c.433-1.393.912-3.169 1.488-4.849l4.609-13.633h4.463l-6.335 16.561c-3.025 7.969-5.089 12.049-7.969 14.546a11.452 11.452 0 0 1 -5.185 2.736l-1.055-3.552a11.169 11.169 0 0 0 3.7-2.065 12.818 12.818 0 0 0 3.552-4.7 3.039 3.039 0 0 0 .336-1.008 3.662 3.662 0 0 0 -.289-1.1l-8.592-21.41z"/><path d="m383.3 94.459v3.12h-11.859v-3.12z"/><path d="m388.386 85.77 4.56 13.057a59.744 59.744 0 0 1 1.872 5.952h.144c.528-1.92 1.2-3.84 1.969-5.952l4.511-13.057h4.417l-9.121 23.23h-4.032l-8.833-23.23z"/><path d="m410.465 98.155c.1 5.712 3.744 8.065 7.969 8.065a15.29 15.29 0 0 0 6.432-1.2l.72 3.024a18.819 18.819 0 0 1 -7.729 1.44c-7.152 0-11.424-4.7-11.424-11.713s4.128-12.529 10.9-12.529c7.585 0 9.6 6.672 9.6 10.945a15.89 15.89 0 0 1 -.145 1.968zm12.385-3.024c.048-2.689-1.1-6.864-5.857-6.864-4.272 0-6.144 3.935-6.48 6.864z"/><path d="m430.912 74.921h4.225v34.079h-4.225z"/></g><rect fill="#c8102e" height="95" rx="26.728" width="95" x="32.76" y="27.5"/><path d="m51.573 75.008h2.519v12.421h-2.519v-5.044h-5.691v5.044h-2.52v-12.421h2.52v5.011h5.691zm14.2 7.11c0 2.019-1 3.1-2.823 3.1s-2.839-1.11-2.839-3.185v-7.018h-2.52v7.1c0 3.493 1.941 5.5 5.325 5.5 3.417 0 5.377-2.042 5.377-5.6v-7.007h-2.52zm29.125 1.431-2.82-8.541h-2.062l-2.816 8.541-2.744-8.535h-2.686l4.33 12.414h2.086l2.824-8.155 2.823 8.155h2.105l4.318-12.414h-2.613zm9.881-1.466h4.583v-2.261h-4.583v-2.542h6.653v-2.264h-9.14v12.405h9.38v-2.263h-6.893zm9.9 5.33h2.487v-12.4h-2.487zm-41.4-2.578-1.13 2.587h-2.584l5.472-12.414h2.223l5.45 12.414h-2.642l-1.116-2.587zm.938-2.239h3.81l-1.911-4.445z" fill="#fff"/><path d="m80.26 59.194a15.831 15.831 0 0 1 -15.813-15.813h2.234a13.579 13.579 0 1 0 27.158 0h2.234a15.831 15.831 0 0 1 -15.813 15.813z" fill="#fff"/></svg>