<svg height="40" viewBox="0 0 150.72179 40" width="150.72179" xmlns="http://www.w3.org/2000/svg"><path d="m141.19249 0h-131.65781c-.3667 0-.729 0-1.09473.002-.30615.002-.60986.00781-.91895.0127a13.21476 13.21476 0 0 0 -2.0039.17671 6.66509 6.66509 0 0 0 -1.90088.627 6.43779 6.43779 0 0 0 -1.61865 1.17866 6.25844 6.25844 0 0 0 -1.17822 1.62109 6.60119 6.60119 0 0 0 -.625 1.90332 12.993 12.993 0 0 0 -.1792 2.002c-.00928.3066-.01026.61422-.01515.92086v23.11426c.00489.3105.00587.6113.01515.9219a12.99232 12.99232 0 0 0 .1792 2.0019 6.58756 6.58756 0 0 0 .625 1.9043 6.20778 6.20778 0 0 0 1.17822 1.6143 6.27445 6.27445 0 0 0 1.61865 1.1787 6.70082 6.70082 0 0 0 1.90088.6308 13.45514 13.45514 0 0 0 2.0039.1768c.30909.0068.6128.0107.91895.0107.36572.002.72805.002 1.09473.002h123.78759c.3594 0 .7246 0 1.084-.002.3047 0 .6172-.0039.9219-.0107a13.279 13.279 0 0 0 2-.1768c.6699-.121 9.16312-.3183 9.77842-.6308a6.27742 6.27742 0 0 0 1.6172-1.1787 6.39482 6.39482 0 0 0 1.1816-1.6143 6.60413 6.60413 0 0 0 .6191-1.9043 13.50643 13.50643 0 0 0 .1856-2.0019c.0039-.3106.0039-.6114.0039-.9219.0078-.3633.0078-.7246.0078-1.0938v-20.92867c0-.36621 0-.72949-.0078-1.09179 0-.30664 0-.61426-.0039-.9209a13.5071 13.5071 0 0 0 -.1856-2.002 6.6177 6.6177 0 0 0 -.6191-1.90332 6.46619 6.46619 0 0 0 -2.7988-2.7998 6.76754 6.76754 0 0 0 -1.9082-.627 13.04394 13.04394 0 0 0 -2-.17676c-.3047-.00488-.6172-.01074-.9219-.01269-.3594-.002-.7246-.002-1.084-.002z" fill="#a6a6a6"/><path d="m8.44482 39.125c-.30467 0-.602-.0039-.90428-.0107a12.68714 12.68714 0 0 1 -1.86914-.1631 5.88381 5.88381 0 0 1 -1.65674-.5479 5.40573 5.40573 0 0 1 -1.397-1.0166 5.32082 5.32082 0 0 1 -1.02051-1.3965 5.72186 5.72186 0 0 1 -.543-1.6572 12.41351 12.41351 0 0 1 -.1665-1.875c-.00634-.2109-.01464-.9131-.01464-.9131v-23.10056s.00884-.69141.01469-.89454a12.37138 12.37138 0 0 1 .16552-1.87207 5.75577 5.75577 0 0 1 .54347-1.6621 5.37365 5.37365 0 0 1 1.01513-1.39795 5.56562 5.56562 0 0 1 1.40235-1.02247 5.82309 5.82309 0 0 1 1.65332-.54394 12.58579 12.58579 0 0 1 1.87551-.16406l.90232-.01221h133.82627l.9131.0127a12.38492 12.38492 0 0 1 1.8584.16259 5.93833 5.93833 0 0 1 1.6709.54785 5.59375 5.59375 0 0 1 2.415 2.41993 5.76267 5.76267 0 0 1 .5352 1.64892 12.995 12.995 0 0 1 .1738 1.88721c.0029.2832.0029.5874.0029.89014.0079.375.0079.73193.0079 1.09179v20.92867c0 .3633 0 .7178-.0079 1.0752 0 .3252 0 .6231-.0039.9297a12.73126 12.73126 0 0 1 -.1709 1.8535 5.739 5.739 0 0 1 -.54 1.67 5.48029 5.48029 0 0 1 -1.0156 1.3857 5.4129 5.4129 0 0 1 -1.3994 1.0225 5.86168 5.86168 0 0 1 -1.668.5498 12.54218 12.54218 0 0 1 -1.8692.1631c-.2929.0068-.5996.0107-.8974.0107l-1.084.002z"/><g fill="#fff"><path d="m24.7718 20.30068a4.94881 4.94881 0 0 1 2.35656-4.15206 5.06566 5.06566 0 0 0 -3.99116-2.15768c-1.67924-.17626-3.30719 1.00483-4.1629 1.00483-.87227 0-2.18977-.98733-3.6085-.95814a5.31529 5.31529 0 0 0 -4.47292 2.72787c-1.934 3.34842-.49141 8.26947 1.3612 10.97608.9269 1.32535 2.01018 2.8058 3.42763 2.7533 1.38706-.05753 1.9051-.88448 3.5794-.88448 1.65876 0 2.14479.88448 3.591.8511 1.48838-.02416 2.42613-1.33124 3.32051-2.66914a10.962 10.962 0 0 0 1.51838-3.09251 4.78205 4.78205 0 0 1 -2.9192-4.39917z"/><path d="m22.04017 12.21089a4.87248 4.87248 0 0 0 1.11452-3.49062 4.95746 4.95746 0 0 0 -3.20758 1.65961 4.63634 4.63634 0 0 0 -1.14371 3.36139 4.09905 4.09905 0 0 0 3.23677-1.53038z"/><path d="m39.39552 14.70166h-3.72168v-5.9668h.92676v5.11475h2.79492z"/><path d="m44.18946 13.48584a1.828 1.828 0 0 1 -1.95117 1.30273 2.04531 2.04531 0 0 1 -2.08008-2.32422 2.07685 2.07685 0 0 1 2.07617-2.35254c1.25293 0 2.00879.856 2.00879 2.27v.31006h-3.17968v.0498a1.1902 1.1902 0 0 0 1.19922 1.29 1.07934 1.07934 0 0 0 1.07129-.5459zm-3.126-1.45117h2.27444a1.08647 1.08647 0 0 0 -1.1084-1.1665 1.15162 1.15162 0 0 0 -1.16601 1.1665z"/><path d="m46.63966 9.07764v1.1416h.97559v.74854h-.97559v2.31542c0 .47168.19434.67822.63672.67822a2.96657 2.96657 0 0 0 .33887-.02051v.74023a2.90533 2.90533 0 0 1 -.4834.04541c-.98828 0-1.38184-.34766-1.38184-1.21582v-2.543h-.71484v-.74854h.71483v-1.14155z"/><path d="m48.51564 12.44824a2.13323 2.13323 0 1 1 4.24707 0 2.13358 2.13358 0 1 1 -4.24707 0zm.69043-3.41992a.55225.55225 0 1 1 .55371.5542.54726.54726 0 0 1 -.55371-.5542zm2.64258 3.41992c0-.97607-.43848-1.54687-1.208-1.54687-.77246 0-1.207.5708-1.207 1.54688 0 .98389.43457 1.55029 1.207 1.55029.76952 0 1.20799-.57032 1.20799-1.5503zm-.877-3.41992a.55228.55228 0 1 1 1.10449 0 .55225.55225 0 1 1 -1.10449 0z"/><path d="m53.9961 8.44092h.88867v6.26074h-.88867z"/><path d="m57.54689 9.07764v1.1416h.97559v.74854h-.97559v2.31542c0 .47168.19434.67822.63672.67822a2.96657 2.96657 0 0 0 .33887-.02051v.74023a2.9155 2.9155 0 0 1 -.4834.04541c-.98828 0-1.38184-.34766-1.38184-1.21582v-2.543h-.71484v-.74854h.71484v-1.14155z"/><path d="m59.73634 8.44092h.88086v2.48145h.07031a1.3856 1.3856 0 0 1 1.373-.80664 1.48339 1.48339 0 0 1 1.55078 1.67871v2.90723h-.88965v-2.688c0-.71924-.335-1.0835-.96289-1.0835a1.05194 1.05194 0 0 0 -1.13379 1.1416v2.62988h-.88867z"/><path d="m68.79347 13.48584a1.828 1.828 0 0 1 -1.95117 1.30273 2.04565 2.04565 0 0 1 -2.08057-2.32422 2.0772 2.0772 0 0 1 2.07666-2.35254c1.25293 0 2.00879.856 2.00879 2.27v.31006h-3.17969v.0498a1.1902 1.1902 0 0 0 1.19922 1.29 1.07934 1.07934 0 0 0 1.07129-.5459zm-3.126-1.45117h2.27443a1.08647 1.08647 0 0 0 -1.1084-1.1665 1.15162 1.15162 0 0 0 -1.16601 1.1665z"/><path d="m71.24366 9.07764v1.1416h.97559v.74854h-.97559v2.31542c0 .47168.19434.67822.63672.67822a2.96657 2.96657 0 0 0 .33887-.02051v.74023a2.90533 2.90533 0 0 1 -.4834.04541c-.98828 0-1.38184-.34766-1.38184-1.21582v-2.543h-.71484v-.74854h.71483v-1.14155z"/><path d="m73.11866 12.44824a2.13323 2.13323 0 1 1 4.24707 0 2.13358 2.13358 0 1 1 -4.24707 0zm1.6875-4.4248h.94238l-1.10449 1.42236h-.82227zm1.64551 4.4248c0-.97607-.43848-1.54687-1.208-1.54687-.77246 0-1.207.5708-1.207 1.54688 0 .98389.43457 1.55029 1.207 1.55029.76952 0 1.208-.57032 1.208-1.5503zm.06152-4.4248h.94336l-1.10449 1.42236h-.82226z"/><path d="m80.74464 13.42822c0-.81055.60352-1.27783 1.6748-1.34424l1.21973-.07031v-.38867c0-.47559-.31445-.74414-.92187-.74414-.49609 0-.83984.18213-.93848.50049h-.86035c.09082-.77344.81836-1.26953 1.83984-1.26953 1.12891 0 1.76563.562 1.76563 1.51318v3.07666h-.85547v-.63281h-.07031a1.515 1.515 0 0 1 -1.35254.707 1.36026 1.36026 0 0 1 -1.50098-1.34763zm2.89453-.38477v-.37645l-1.09961.07031c-.62012.0415-.90137.25244-.90137.64941 0 .40527.35156.64111.835.64111a1.0615 1.0615 0 0 0 1.16598-.98437z"/><path d="m85.812 14.09814 2.47656-3.07666v-.07031h-2.46v-.75244h3.52246v.64893l-2.42285 3.03125v.07031h2.44824v.75244h-3.56441z"/><path d="m42.30763 27.12891h-4.7334l-1.13672 3.35645h-2.00488l4.48337-12.41847h2.083l4.4834 12.41846h-2.03903zm-4.24316-1.54883h3.752l-1.84961-5.44775h-.05186z"/><path d="m55.165 25.959c0 2.81348-1.50586 4.62109-3.77832 4.62109a3.0693 3.0693 0 0 1 -2.84863-1.584h-.043v4.48438h-1.8584v-12.04932h1.79883v1.50585h.03418a3.21162 3.21162 0 0 1 2.88281-1.60059c2.29793.00002 3.81253 1.81642 3.81253 4.62259zm-1.91016 0c0-1.8335-.94727-3.03857-2.39258-3.03857-1.41992 0-2.375 1.23047-2.375 3.03857 0 1.82422.95508 3.0459 2.375 3.0459 1.44537-.00002 2.39263-1.19631 2.39263-3.0459z"/><path d="m65.1294 25.959c0 2.81348-1.50537 4.62109-3.77783 4.62109a3.0693 3.0693 0 0 1 -2.84863-1.584h-.04294v4.48438h-1.8584v-12.04932h1.7988v1.50585h.03418a3.21162 3.21162 0 0 1 2.88281-1.60059c2.29785.00002 3.81201 1.81642 3.81201 4.62259zm-1.90967 0c0-1.8335-.94727-3.03857-2.39258-3.03857-1.41992 0-2.375 1.23047-2.375 3.03857 0 1.82422.95508 3.0459 2.375 3.0459 1.44532-.00002 2.39259-1.19631 2.39259-3.0459z"/><path d="m71.71437 27.02539c.1377 1.23145 1.334 2.04 2.96875 2.04 1.56641 0 2.69336-.80859 2.69336-1.91895 0-.96387-.67969-1.541-2.28906-1.93652l-1.60942-.38814c-2.28027-.55078-3.33887-1.61719-3.33887-3.34766 0-2.14258 1.86719-3.61426 4.51758-3.61426 2.625 0 4.42383 1.47168 4.48438 3.61426h-1.876c-.1123-1.23926-1.13672-1.9873-2.63379-1.9873s-2.52148.75684-2.52148 1.8584c0 .87793.6543 1.39453 2.25488 1.79l1.36816.33594c2.54785.60254 3.60547 1.62646 3.60547 3.44287 0 2.32324-1.84961 3.77832-4.793 3.77832-2.75391 0-4.61328-1.4209-4.7334-3.667z"/><path d="m83.35108 19.28857v2.14258h1.72168v1.47168h-1.72168v4.9917c0 .77539.34473 1.13672 1.10156 1.13672a5.80752 5.80752 0 0 0 .61133-.043v1.46289a5.10351 5.10351 0 0 1 -1.03223.08594c-1.833 0-2.54785-.68848-2.54785-2.44434v-5.18991h-1.3164v-1.47168h1.31641v-2.14258z"/><path d="m86.06886 25.959c0-2.84912 1.67773-4.63916 4.29395-4.63916 2.625 0 4.29492 1.79 4.29492 4.63916 0 2.85645-1.66113 4.63867-4.29492 4.63867-2.63281-.00001-4.29395-1.78224-4.29395-4.63867zm6.69531 0c0-1.95459-.89551-3.10791-2.40137-3.10791s-2.40137 1.16211-2.40137 3.10791c0 1.96191.89551 3.10645 2.40137 3.10645s2.40137-1.14455 2.40137-3.10645z"/><path d="m96.19 21.43115h1.77246v1.541h.043a2.1594 2.1594 0 0 1 2.17773-1.63574 2.86615 2.86615 0 0 1 .63672.06934v1.73825a2.59794 2.59794 0 0 0 -.835-.1123 1.8728 1.8728 0 0 0 -1.93652 2.0835v5.37012h-1.85839z"/><path d="m109.38819 27.82617c-.25 1.64355-1.85059 2.77148-3.89844 2.77148-2.63379 0-4.26855-1.76465-4.26855-4.5957 0-2.84033 1.64355-4.68213 4.19043-4.68213 2.50488 0 4.08008 1.7207 4.08008 4.46631v.63672h-6.39453v.1123a2.358 2.358 0 0 0 2.43555 2.56445 2.04834 2.04834 0 0 0 2.09082-1.27344zm-6.28219-2.70217h4.52637a2.17744 2.17744 0 0 0 -2.2207-2.29834 2.29214 2.29214 0 0 0 -2.30567 2.29834z"/><path d="m111.10108 26.28613v-1.6792h5.64551v1.6792z"/><path d="m120.67042 28.94531h-.03418v1.54h-1.80762v-12.41842h1.85938v4.87011h.043a3.09832 3.09832 0 0 1 2.85742-1.60059c2.28027 0 3.76953 1.81641 3.76953 4.62256 0 2.81348-1.48926 4.62109-3.77832 4.62109a3.1159 3.1159 0 0 1 -2.90921-1.63475zm.00879-2.98633c0 1.82422.96387 3.0459 2.40137 3.0459 1.42871 0 2.36621-1.1875 2.36621-3.0459 0-1.84229-.9375-3.03857-2.36621-3.03857s-2.40137 1.23047-2.40137 3.03859z"/><path d="m128.49464 25.959c0-2.84912 1.67773-4.63916 4.29395-4.63916 2.625 0 4.29492 1.79 4.29492 4.63916 0 2.85645-1.66113 4.63867-4.29492 4.63867-2.63282-.00001-4.29395-1.78224-4.29395-4.63867zm6.69531 0c0-1.95459-.89551-3.10791-2.40137-3.10791s-2.40137 1.16211-2.40137 3.10791c0 1.96191.89551 3.10645 2.40137 3.10645s2.40142-1.14455 2.40142-3.10645zm-3.17578-5.81885 1.8418-2.60742h1.86719l-2.15137 2.60742z"/><path d="m138.68409 18.06689h1.85938v12.41846h-1.85937z"/></g></svg>